<svg width="33" height="32" viewBox="0 0 33 32" fill="none" xmlns="http://www.w3.org/2000/svg">
<path d="M16.5 13.818V18.4652H22.9582C22.6746 19.9598 21.8236 21.2253 20.5472 22.0762L24.4417 25.098C26.7108 23.0036 28.0199 19.9272 28.0199 16.2726C28.0199 15.4217 27.9436 14.6035 27.8017 13.8181L16.5 13.818Z" fill="#4285F4"/>
<path d="M9.77461 18.284L8.89625 18.9564L5.78711 21.3781C7.76165 25.2945 11.8086 28 16.4995 28C19.7394 28 22.4557 26.9309 24.4412 25.0982L20.5467 22.0763C19.4776 22.7963 18.114 23.2327 16.4995 23.2327C13.3795 23.2327 10.7287 21.1273 9.77952 18.2909L9.77461 18.284Z" fill="#34A853"/>
<path d="M5.78718 10.6223C4.96904 12.2367 4.5 14.0586 4.5 16.0004C4.5 17.9422 4.96904 19.764 5.78718 21.3785C5.78718 21.3893 9.77997 18.2803 9.77997 18.2803C9.53998 17.5603 9.39812 16.7967 9.39812 16.0003C9.39812 15.2038 9.53998 14.4402 9.77997 13.7202L5.78718 10.6223Z" fill="#FBBC05"/>
<path d="M16.4997 8.77818C18.267 8.77818 19.8379 9.38907 21.0925 10.5673L24.5288 7.13095C22.4452 5.18917 19.7398 4 16.4997 4C11.8089 4 7.76165 6.69454 5.78711 10.6218L9.77978 13.72C10.7288 10.8836 13.3798 8.77818 16.4997 8.77818Z" fill="#EA4335"/>
</svg>
