<svg width="32" height="33" viewBox="0 0 32 33" fill="none" xmlns="http://www.w3.org/2000/svg">
<path d="M16 14.318V18.9652H22.4582C22.1746 20.4598 21.3236 21.7253 20.0472 22.5762L23.9417 25.598C26.2108 23.5036 27.5199 20.4272 27.5199 16.7726C27.5199 15.9217 27.4436 15.1035 27.3017 14.3181L16 14.318Z" fill="#4285F4"/>
<path d="M9.27461 18.784L8.39625 19.4564L5.28711 21.8781C7.26165 25.7945 11.3086 28.5 15.9995 28.5C19.2394 28.5 21.9557 27.4309 23.9412 25.5982L20.0467 22.5763C18.9776 23.2963 17.614 23.7327 15.9995 23.7327C12.8795 23.7327 10.2287 21.6273 9.27952 18.7909L9.27461 18.784Z" fill="#34A853"/>
<path d="M5.28718 11.1223C4.46904 12.7367 4 14.5586 4 16.5004C4 18.4422 4.46904 20.264 5.28718 21.8785C5.28718 21.8893 9.27997 18.7803 9.27997 18.7803C9.03998 18.0603 8.89812 17.2967 8.89812 16.5002C8.89812 15.7038 9.03998 14.9402 9.27997 14.2202L5.28718 11.1223Z" fill="#FBBC05"/>
<path d="M15.9997 9.27818C17.767 9.27818 19.3379 9.88907 20.5925 11.0673L24.0288 7.63095C21.9452 5.68917 19.2398 4.5 15.9997 4.5C11.3089 4.5 7.26165 7.19454 5.28711 11.1218L9.27978 14.22C10.2288 11.3836 12.8798 9.27818 15.9997 9.27818Z" fill="#EA4335"/>
</svg>
